# xmcd CD database file
#
# Track frame offsets:
#	150
#	20830
#	37162
#	57842
#
# Disc length: 987 seconds
#
# Revision: 0
# Processed by: cddbd v1.5.1PL0 Copyright (c) Steve Scherf et al.
# Submitted via: CDex 1.51
#
DISCID=3303d904
DTITLE=大沢あかね - 夏日星
DYEAR=2004
DGENRE=JPop
TTITLE0=夏日星
TTITLE1=ワタシを愛せるワタシならきっともっとキミを愛せるから....
TTITLE2=夏日星(back track)
TTITLE3=ワタシを愛せるワタシならきっともっとキミを愛せるから....(back track)
EXTD=YEAR: 2004.5.26
EXTT0=
EXTT1=
EXTT2=
EXTT3=
PLAYORDER=
